# xmcd CD database file
#
# Track frame offsets:
#	150
#	14340
#	26755
#	37824
#	51010
#	68032
#	80246
#	94000
#	105295
#	118793
#	136694
#	151182
#	167381
#	184709
#	197176
#	214388
#
# Disc length: 3035 seconds
#
# Revision: 0
# Processed by: cddbd v1.4PL0 Copyright (c) Steve Scherf et al.
# Submitted via: CDex 1.50
#
DISCID=cb0bd910
DTITLE=Tennessee - Sahnestücke 1975-1995
DYEAR=1900
DGENRE=Country
TTITLE0=Hallo liebe Hörer
TTITLE1=Freitagabend
TTITLE2=Wildwest im Wald
TTITLE3=Tennessee
TTITLE4=Traumfrau
TTITLE5=Ich bin K.O.
TTITLE6=Tausche UFO gegen 30-Tonner Diesel
TTITLE7=Und ich träume
TTITLE8=Intercity-Express
TTITLE9=Easy Rider
TTITLE10=Elvis- komm doch wieder
TTITLE11=Hey Mädchen, du träumst
TTITLE12=Heut' Nacht lass ich die Flasche stehn
TTITLE13=Das Fußballied
TTITLE14=Blue Train
TTITLE15=Run Boy Run
EXTD=
EXTT0=
EXTT1=
EXTT2=
EXTT3=
EXTT4=
EXTT5=
EXTT6=
EXTT7=
EXTT8=
EXTT9=
EXTT10=
EXTT11=
EXTT12=
EXTT13=
EXTT14=
EXTT15=
PLAYORDER=
